<svg width="48" height="48" viewBox="0 0 48 48" fill="none" xmlns="http://www.w3.org/2000/svg">
<rect x="0.5" y="0.5" width="47" height="47" rx="23.5" stroke="#848386"/>
<path d="M29.6095 25.754C30.0697 25.2765 30.1354 24.5942 29.741 23.9119C29.4123 23.3661 28.8206 23.0932 28.1632 23.2296C27.9002 23.2979 27.6373 23.4343 27.3743 23.639C25.3363 25.0718 22.5752 25.0035 20.5372 23.5708C20.4057 23.5025 20.2742 23.4343 20.1428 23.3661C19.4196 23.0249 18.6965 23.1614 18.302 23.8437C17.8418 24.526 17.9075 25.2765 18.4992 25.8905C18.6307 26.027 18.7622 26.0952 18.8279 26.2316L18.8937 26.2999C19.8141 27.0504 20.9317 27.528 22.378 27.7326L21.5233 28.6196C20.8002 29.3701 20.0113 30.1888 19.2881 30.9393C19.0909 31.144 18.8279 31.4851 18.8279 31.9627C18.8279 32.5768 19.1566 33.1908 19.7483 33.4637C19.9455 33.6002 20.1428 33.6002 20.34 33.6002C20.6687 33.6002 21.0631 33.4637 21.3261 33.1226C22.3122 32.0992 23.1011 31.2805 23.89 30.4617C23.9558 30.3935 23.9558 30.3935 23.9558 30.3935C23.9558 30.3935 24.0215 30.3935 24.0215 30.4617C24.5474 31.0758 25.1391 31.6216 25.665 32.2356C25.928 32.5086 26.191 32.7815 26.4539 33.0544C26.7826 33.3955 27.0456 33.532 27.44 33.532C28.0317 33.6002 28.6891 33.1908 28.9521 32.5768C29.2151 32.031 29.0836 31.3487 28.6234 30.9393C27.966 30.2571 27.3086 29.5065 26.5854 28.8243L25.4678 27.6644C26.0595 27.5962 26.7169 27.4597 27.3086 27.1868C28.2947 26.8457 29.0178 26.3681 29.6095 25.754Z" fill="#848386"/>
<path d="M23.9558 23.8437C26.7826 23.8437 29.0836 21.5239 29.0836 18.5902C29.0836 17.1574 28.5576 15.7928 27.5715 14.7694C26.5854 13.746 25.3363 13.2002 24.0215 13.2002C21.1946 13.2002 18.9594 15.5882 18.8937 18.4537C18.8937 19.8865 19.4196 21.1828 20.4057 22.2062C21.3261 23.2978 22.5752 23.8437 23.9558 23.8437ZM22.5094 17.0209C22.9039 16.6116 23.4298 16.4069 23.9558 16.4069C25.1391 16.4069 25.9937 17.3621 25.9937 18.5219C25.9937 19.75 25.0734 20.637 23.9558 20.637C22.7724 20.637 21.9178 19.6818 21.9178 18.5219C21.9178 17.9761 22.115 17.4303 22.5094 17.0209Z" fill="#848386"/>
<path d="M29.6095 25.754C30.0697 25.2765 30.1354 24.5942 29.741 23.9119C29.4123 23.3661 28.8206 23.0932 28.1632 23.2296C27.9002 23.2979 27.6373 23.4343 27.3743 23.639C25.3363 25.0718 22.5752 25.0035 20.5372 23.5708C20.4057 23.5025 20.2742 23.4343 20.1428 23.3661C19.4196 23.0249 18.6965 23.1614 18.302 23.8437C17.8418 24.526 17.9075 25.2765 18.4992 25.8905C18.6307 26.027 18.7622 26.0952 18.8279 26.2316L18.8937 26.2999C19.8141 27.0504 20.9317 27.528 22.378 27.7326L21.5233 28.6196C20.8002 29.3701 20.0113 30.1888 19.2881 30.9393C19.0909 31.144 18.8279 31.4851 18.8279 31.9627C18.8279 32.5768 19.1566 33.1908 19.7483 33.4637C19.9455 33.6002 20.1428 33.6002 20.34 33.6002C20.6687 33.6002 21.0631 33.4637 21.3261 33.1226C22.3122 32.0992 23.1011 31.2805 23.89 30.4617C23.9558 30.3935 23.9558 30.3935 23.9558 30.3935C23.9558 30.3935 24.0215 30.3935 24.0215 30.4617C24.5474 31.0758 25.1391 31.6216 25.665 32.2356C25.928 32.5086 26.191 32.7815 26.4539 33.0544C26.7826 33.3955 27.0456 33.532 27.44 33.532C28.0317 33.6002 28.6891 33.1908 28.9521 32.5768C29.2151 32.031 29.0836 31.3487 28.6234 30.9393C27.966 30.2571 27.3086 29.5065 26.5854 28.8243L25.4678 27.6644C26.0595 27.5962 26.7169 27.4597 27.3086 27.1868C28.2947 26.8457 29.0178 26.3681 29.6095 25.754Z" fill="#848386"/>
</svg>
