<svg width="48" height="48" viewBox="0 0 48 48" fill="none" xmlns="http://www.w3.org/2000/svg">
<rect x="0.5" y="0.5" width="47" height="47" rx="23.5" stroke="#848386"/>
<path d="M24.8575 30C18.2976 30 14.5559 25.4955 14.4 18H17.6859C17.7939 23.5015 20.2164 25.8318 22.1352 26.3123V18H25.2292V22.7447C27.124 22.5405 29.1148 20.3784 29.7864 18H32.8804C32.6274 19.2335 32.1229 20.4014 31.3986 21.4307C30.6743 22.46 29.7458 23.3285 28.6711 23.982C29.8707 24.579 30.9303 25.4241 31.7799 26.4615C32.6295 27.4988 33.2499 28.7049 33.6 30H30.1941C29.8798 28.8751 29.2411 27.8681 28.3579 27.1053C27.4747 26.3424 26.3863 25.8577 25.2292 25.7117V30H24.8575Z" fill="#848386"/>
</svg>
