<svg width="48" height="48" viewBox="0 0 48 48" fill="none" xmlns="http://www.w3.org/2000/svg">
<rect x="0.5" y="0.5" width="47" height="47" rx="23.5" stroke="#848386"/>
<path d="M30.7902 17.1999C28.984 15.3999 26.5756 14.3999 24.0334 14.3999C18.7484 14.3999 14.4669 18.6666 14.4669 23.9332C14.4669 25.5999 14.9352 27.2666 15.738 28.6666L14.4 33.5999L19.4843 32.2666C20.8892 32.9999 22.4279 33.3999 24.0334 33.3999C29.3185 33.3999 33.6 29.1332 33.6 23.8666C33.5331 21.3999 32.5965 18.9999 30.7902 17.1999ZM28.6495 27.3332C28.4488 27.8666 27.5122 28.3999 27.0439 28.4666C26.6425 28.5332 26.1073 28.5332 25.5721 28.3999C25.2376 28.2666 24.7693 28.1332 24.2341 27.8666C21.8258 26.8666 20.2871 24.4666 20.1533 24.2666C20.0195 24.1332 19.1498 22.9999 19.1498 21.7999C19.1498 20.5999 19.7519 20.0666 19.9526 19.7999C20.1533 19.5332 20.4209 19.5332 20.6216 19.5332C20.7554 19.5332 20.9561 19.5332 21.0899 19.5332C21.2237 19.5332 21.4244 19.4666 21.6251 19.9332C21.8258 20.3999 22.2941 21.5999 22.361 21.6666C22.4279 21.7999 22.4279 21.9332 22.361 22.0666C22.2941 22.1999 22.2272 22.3332 22.0934 22.4666C21.9596 22.5999 21.8258 22.7999 21.7589 22.8666C21.6251 22.9999 21.4913 23.1332 21.6251 23.3332C21.7589 23.5999 22.2272 24.3332 22.9631 24.9999C23.8996 25.7999 24.6355 26.0666 24.9031 26.1999C25.1707 26.3332 25.3045 26.2666 25.4383 26.1332C25.5721 25.9999 26.0404 25.4666 26.1742 25.1999C26.308 24.9332 26.5087 24.9999 26.7094 25.0666C26.9101 25.1332 28.1143 25.7332 28.315 25.8666C28.5826 25.9999 28.7164 26.0666 28.7833 26.1332C28.8502 26.3332 28.8502 26.7999 28.6495 27.3332Z" fill="#848386"/>
</svg>
