<svg width="48" height="48" viewBox="0 0 48 48" fill="none" xmlns="http://www.w3.org/2000/svg">
<rect x="0.5" y="0.5" width="47" height="47" rx="23.5" stroke="#848386"/>
<path fill-rule="evenodd" clip-rule="evenodd" d="M16.3745 30.7744C16.0322 30.6629 15.7198 30.4647 15.4638 30.1965C15.2078 29.9282 15.0156 29.5977 14.9035 29.233C14.2629 27.3477 14.0731 19.4753 15.3069 17.9212C15.7175 17.4156 16.2972 17.1043 16.9202 17.0549C20.23 16.6728 30.456 16.7237 31.6304 17.1823C31.9607 17.2974 32.2625 17.4913 32.5132 17.7494C32.7638 18.0075 32.9568 18.3231 33.0777 18.6727C33.7776 20.6217 33.8014 27.7044 32.9828 29.5769C32.7657 30.0644 32.4021 30.4592 31.9507 30.6979C30.717 31.3603 18.0116 31.3476 16.3745 30.7744ZM21.6299 27.0802L27.5614 23.7681L21.6299 20.4306V27.0802Z" fill="#848386"/>
</svg>
