<svg width="153" height="51" viewBox="0 0 153 51" fill="none" xmlns="http://www.w3.org/2000/svg">
<path d="M80.4982 29.9552C78.8772 29.9552 77.5087 29.5973 76.3928 28.8814C75.277 28.158 74.4325 27.1595 73.8595 25.886C73.2865 24.6124 73 23.143 73 21.4776C73 19.8122 73.2865 18.3428 73.8595 17.0692C74.4325 15.7957 75.277 14.801 76.3928 14.0851C77.5087 13.3617 78.8772 13 80.4982 13C82.3907 13 83.9363 13.486 85.1351 14.4581C86.3339 15.4227 87.1557 16.7188 87.6006 18.3465L85.9041 18.7874C85.5573 17.4988 84.9353 16.4777 84.0381 15.7241C83.1408 14.9706 81.9609 14.5938 80.4982 14.5938C79.224 14.5938 78.1647 14.8839 77.3202 15.4642C76.4758 16.0444 75.8387 16.8545 75.4089 17.8944C74.9867 18.9268 74.7681 20.1212 74.753 21.4776C74.7454 22.834 74.9528 24.0284 75.375 25.0608C75.8048 26.0932 76.4456 26.9033 77.2976 27.491C78.1571 28.0713 79.224 28.3614 80.4982 28.3614C81.9609 28.3614 83.1408 27.9846 84.0381 27.2311C84.9353 26.47 85.5573 25.4489 85.9041 24.1678L87.6006 24.6087C87.1557 26.2364 86.3339 27.5363 85.1351 28.5084C83.9363 29.4729 82.3907 29.9552 80.4982 29.9552Z" fill="#FFFBFC"/>
<path d="M95.1965 29.9552C93.9826 29.9552 92.9459 29.6802 92.0864 29.1301C91.2268 28.58 90.5671 27.8189 90.1072 26.8468C89.6473 25.8747 89.4173 24.7594 89.4173 23.5009C89.4173 22.2199 89.651 21.0971 90.1185 20.1325C90.586 19.1679 91.2495 18.4181 92.109 17.8831C92.976 17.3405 94.0052 17.0692 95.1965 17.0692C96.4179 17.0692 97.4584 17.3443 98.3179 17.8944C99.185 18.437 99.8447 19.1943 100.297 20.1664C100.757 21.131 100.987 22.2425 100.987 23.5009C100.987 24.782 100.757 25.9086 100.297 26.8807C99.8371 27.8452 99.1736 28.5988 98.3066 29.1414C97.4395 29.6839 96.4028 29.9552 95.1965 29.9552ZM95.1965 28.3614C96.5536 28.3614 97.5639 27.913 98.2274 27.0163C98.8909 26.112 99.2227 24.9402 99.2227 23.5009C99.2227 22.0239 98.8871 20.8484 98.2161 19.9742C97.5526 19.1001 96.5461 18.663 95.1965 18.663C94.2842 18.663 93.5302 18.8703 92.9346 19.2847C92.3465 19.6917 91.9054 20.2606 91.6114 20.9916C91.3249 21.715 91.1816 22.5514 91.1816 23.5009C91.1816 24.9704 91.5209 26.1497 92.1995 27.0389C92.878 27.9206 93.877 28.3614 95.1965 28.3614Z" fill="#FFFBFC"/>
<path d="M110.957 29.6161V25.0721C110.55 25.2756 110.049 25.4527 109.453 25.6034C108.858 25.7541 108.217 25.8294 107.531 25.8294C106.294 25.8294 105.291 25.5544 104.522 25.0043C103.753 24.4542 103.252 23.6592 103.018 22.6193C102.943 22.3103 102.89 21.9825 102.86 21.6359C102.837 21.2892 102.822 20.9765 102.814 20.6977C102.807 20.4188 102.803 20.2191 102.803 20.0986V17.4084H104.477V20.0986C104.477 20.3473 104.485 20.6298 104.5 20.9463C104.515 21.2628 104.549 21.5718 104.601 21.8732C104.752 22.6946 105.091 23.3163 105.619 23.7383C106.155 24.1603 106.905 24.3713 107.87 24.3713C108.473 24.3713 109.042 24.2959 109.578 24.1452C110.12 23.987 110.58 23.776 110.957 23.5122V17.4084H112.62V29.6161H110.957Z" fill="#FFFBFC"/>
<path d="M125.489 17.4084V29.6161H123.872V20.1099L117.176 29.6161H115.774V17.4084H117.391V26.8354L124.098 17.4084H125.489Z" fill="#FFFBFC"/>
<path d="M74.753 49.6609V33.3839H81.041C81.1994 33.3839 81.3766 33.3914 81.5726 33.4065C81.7762 33.414 81.9797 33.4367 82.1833 33.4743C83.0353 33.6024 83.7553 33.9001 84.3434 34.3673C84.9391 34.827 85.3877 35.4072 85.6893 36.108C85.9984 36.8089 86.1529 37.585 86.1529 38.4366C86.1529 39.2805 85.9984 40.0529 85.6893 40.7538C85.3801 41.4546 84.9277 42.0386 84.3321 42.5058C83.744 42.9655 83.0277 43.2594 82.1833 43.3875C81.9797 43.4176 81.7762 43.4402 81.5726 43.4553C81.3766 43.4704 81.1994 43.4779 81.041 43.4779H76.4155V49.6609H74.753ZM76.4155 41.8954H80.9958C81.1315 41.8954 81.2899 41.8879 81.4708 41.8728C81.6518 41.8577 81.8289 41.8314 82.0024 41.7937C82.5603 41.6731 83.0164 41.4433 83.3708 41.1042C83.7327 40.7651 84.0004 40.3619 84.1738 39.8947C84.3547 39.4275 84.4452 38.9414 84.4452 38.4366C84.4452 37.9317 84.3547 37.4456 84.1738 36.9784C84.0004 36.5037 83.7327 36.0967 83.3708 35.7576C83.0164 35.4185 82.5603 35.1887 82.0024 35.0681C81.8289 35.0304 81.6518 35.0078 81.4708 35.0003C81.2899 34.9852 81.1315 34.9777 80.9958 34.9777H76.4155V41.8954Z" fill="#FFFBFC"/>
<path d="M93.5723 50C92.3811 50 91.3481 49.7363 90.4735 49.2088C89.6065 48.6813 88.9317 47.939 88.4491 46.982C87.9666 46.0249 87.7253 44.9021 87.7253 43.6135C87.7253 42.2797 87.9628 41.1268 88.4378 40.1547C88.9128 39.1826 89.5801 38.4328 90.4396 37.9053C91.3067 37.3778 92.3283 37.114 93.5045 37.114C94.7108 37.114 95.74 37.3929 96.592 37.9505C97.4439 38.5006 98.0886 39.2918 98.5259 40.3242C98.9632 41.3566 99.163 42.5887 99.1253 44.0205H97.4289V43.4327C97.3987 41.8502 97.0556 40.6558 96.3997 39.8495C95.7513 39.0432 94.8013 38.64 93.5497 38.64C92.2378 38.64 91.2313 39.0658 90.5301 39.9173C89.8364 40.7688 89.4896 41.9821 89.4896 43.557C89.4896 45.0943 89.8364 46.2887 90.5301 47.1402C91.2313 47.9842 92.2227 48.4062 93.5045 48.4062C94.3791 48.4062 95.1406 48.2065 95.789 47.8071C96.4449 47.4002 96.9614 46.8162 97.3384 46.0551L98.8878 46.6542C98.4052 47.7167 97.6927 48.5419 96.7503 49.1296C95.8154 49.7099 94.756 50 93.5723 50ZM88.9015 44.0205V42.6301H98.2318V44.0205H88.9015Z" fill="#FFFBFC"/>
<path d="M101.292 49.6609V37.4531H102.774L107.535 47.4454L112.308 37.4531H113.778V49.6609H112.172V41.0024L108.067 49.6609H107.015L102.91 41.0024V49.6609H101.292Z" fill="#FFFBFC"/>
<path d="M122.043 50C120.829 50 119.793 49.725 118.933 49.1748C118.074 48.6247 117.414 47.8636 116.954 46.8915C116.494 45.9195 116.264 44.8042 116.264 43.5457C116.264 42.2647 116.498 41.1418 116.965 40.1773C117.433 39.2127 118.096 38.4629 118.956 37.9279C119.823 37.3853 120.852 37.114 122.043 37.114C123.265 37.114 124.305 37.3891 125.165 37.9392C126.032 38.4818 126.691 39.2391 127.144 40.2112C127.604 41.1758 127.834 42.2873 127.834 43.5457C127.834 44.8268 127.604 45.9534 127.144 46.9255C126.684 47.89 126.02 48.6436 125.153 49.1862C124.286 49.7287 123.25 50 122.043 50ZM122.043 48.4062C123.4 48.4062 124.411 47.9578 125.074 47.0611C125.738 46.1568 126.069 44.985 126.069 43.5457C126.069 42.0687 125.734 40.8932 125.063 40.019C124.399 39.1449 123.393 38.7078 122.043 38.7078C121.131 38.7078 120.377 38.9151 119.781 39.3295C119.193 39.7364 118.752 40.3054 118.458 41.0364C118.172 41.7598 118.028 42.5962 118.028 43.5457C118.028 45.0152 118.368 46.1945 119.046 47.0837C119.725 47.9654 120.724 48.4062 122.043 48.4062Z" fill="#FFFBFC"/>
<path d="M130.317 49.6609V37.4531H131.98V42.7545H138.867V37.4531H140.53V49.6609H138.867V44.3483H131.98V49.6609H130.317Z" fill="#FFFBFC"/>
<path d="M147.006 49.6609V38.9904H142.674V37.4531H153V38.9904H148.668V49.6609H147.006Z" fill="#FFFBFC"/>
<path fill-rule="evenodd" clip-rule="evenodd" d="M0 18.3645V50.0728H62.8284V25.0364V0L0 18.3645ZM27.2302 29.6728L61.1096 20.5357V24.5162L27.2302 33.608V29.6728ZM2.35213 50.0728H9.9103V24.7696L61.1549 10.1153V2.8949L2.35213 19.9494V50.0728Z" fill="#FFFBFC"/>
</svg>
