<svg width="107" height="35" viewBox="0 0 107 35" fill="none" xmlns="http://www.w3.org/2000/svg">
<path d="M56.2667 20.9383C55.1337 20.9383 54.1772 20.6881 53.3972 20.1877C52.6172 19.6821 52.027 18.9841 51.6264 18.094C51.2259 17.2038 51.0256 16.1767 51.0256 15.0126C51.0256 13.8485 51.2259 12.8214 51.6264 11.9312C52.027 11.0411 52.6172 10.3458 53.3972 9.8454C54.1772 9.33974 55.1337 9.08691 56.2667 9.08691C57.5895 9.08691 58.6699 9.42665 59.5078 10.1061C60.3458 10.7803 60.9202 11.6863 61.2312 12.8241L60.0454 13.1322C59.803 12.2315 59.3682 11.5178 58.7411 10.991C58.1139 10.4643 57.2891 10.2009 56.2667 10.2009C55.3761 10.2009 54.6356 10.4037 54.0454 10.8093C53.4551 11.2149 53.0098 11.7811 52.7094 12.508C52.4143 13.2296 52.2615 14.0645 52.2509 15.0126C52.2457 15.9607 52.3906 16.7956 52.6857 17.5172C52.9861 18.2388 53.4341 18.8051 54.0296 19.2159C54.6304 19.6215 55.3761 19.8243 56.2667 19.8243C57.2891 19.8243 58.1139 19.5609 58.7411 19.0342C59.3682 18.5022 59.803 17.7885 60.0454 16.893L61.2312 17.2012C60.9202 18.3389 60.3458 19.2475 59.5078 19.927C58.6699 20.6012 57.5895 20.9383 56.2667 20.9383Z" fill="#0A0A0A"/>
<path d="M66.5406 20.9383C65.6921 20.9383 64.9675 20.7461 64.3667 20.3615C63.7659 19.977 63.3047 19.445 62.9833 18.7656C62.6618 18.0861 62.5011 17.3065 62.5011 16.4269C62.5011 15.5314 62.6644 14.7466 62.9912 14.0724C63.3179 13.3982 63.7817 12.8741 64.3825 12.5001C64.9885 12.1209 65.7079 11.9312 66.5406 11.9312C67.3943 11.9312 68.1216 12.1235 68.7224 12.508C69.3285 12.8873 69.7896 13.4166 70.1058 14.0961C70.4273 14.7703 70.588 15.5472 70.588 16.4269C70.588 17.3223 70.4273 18.1098 70.1058 18.7893C69.7843 19.4635 69.3206 19.9902 68.7145 20.3694C68.1084 20.7487 67.3838 20.9383 66.5406 20.9383ZM66.5406 19.8243C67.4892 19.8243 68.1954 19.5109 68.6592 18.8841C69.1229 18.252 69.3548 17.4329 69.3548 16.4269C69.3548 15.3945 69.1203 14.5728 68.6513 13.9618C68.1875 13.3508 67.4839 13.0453 66.5406 13.0453C65.9029 13.0453 65.3759 13.1901 64.9596 13.4798C64.5485 13.7643 64.2402 14.1619 64.0347 14.6729C63.8344 15.1785 63.7343 15.7632 63.7343 16.4269C63.7343 17.454 63.9714 18.2783 64.4457 18.8999C64.92 19.5161 65.6183 19.8243 66.5406 19.8243Z" fill="#0A0A0A"/>
<path d="M77.5571 20.7013V17.5251C77.2725 17.6673 76.9221 17.7911 76.5058 17.8965C76.0894 18.0018 75.6415 18.0545 75.1619 18.0545C74.2976 18.0545 73.5967 17.8622 73.0591 17.4777C72.5216 17.0932 72.1711 16.5375 72.0077 15.8106C71.955 15.5946 71.9181 15.3655 71.8971 15.1232C71.8812 14.8809 71.8707 14.6623 71.8654 14.4674C71.8602 14.2726 71.8575 14.133 71.8575 14.0487V12.1683H73.0275V14.0487C73.0275 14.2225 73.0328 14.42 73.0433 14.6413C73.0538 14.8625 73.0776 15.0785 73.1144 15.2891C73.2198 15.8633 73.457 16.2978 73.8259 16.5928C74.2001 16.8878 74.7245 17.0352 75.399 17.0352C75.8206 17.0352 76.2185 16.9826 76.5927 16.8772C76.9722 16.7666 77.2936 16.6191 77.5571 16.4348V12.1683H78.7192V20.7013H77.5571Z" fill="#0A0A0A"/>
<path d="M87.7144 12.1683V20.7013H86.5839V14.0566L81.9041 20.7013H80.9239V12.1683H82.0543V18.7577L86.742 12.1683H87.7144Z" fill="#0A0A0A"/>
<path d="M52.2509 34.7122V23.3349H56.6462C56.7569 23.3349 56.8807 23.3402 57.0177 23.3507C57.16 23.356 57.3023 23.3718 57.4446 23.3981C58.0401 23.4877 58.5434 23.6957 58.9545 24.0223C59.3708 24.3436 59.6844 24.7492 59.8952 25.239C60.1113 25.7289 60.2193 26.2714 60.2193 26.8666C60.2193 27.4566 60.1113 27.9965 59.8952 28.4863C59.6791 28.9762 59.3629 29.3844 58.9466 29.711C58.5355 30.0323 58.0349 30.2377 57.4446 30.3272C57.3023 30.3483 57.16 30.3641 57.0177 30.3746C56.8807 30.3852 56.7569 30.3904 56.6462 30.3904H53.413V34.7122H52.2509ZM53.413 29.2843H56.6146C56.7094 29.2843 56.8201 29.279 56.9466 29.2685C57.0731 29.258 57.1969 29.2395 57.3181 29.2132C57.7081 29.1289 58.027 28.9683 58.2746 28.7312C58.5276 28.4942 58.7147 28.2124 58.8359 27.8858C58.9624 27.5593 59.0256 27.2195 59.0256 26.8666C59.0256 26.5137 58.9624 26.174 58.8359 25.8474C58.7147 25.5156 58.5276 25.2311 58.2746 24.9941C58.027 24.7571 57.7081 24.5964 57.3181 24.5121C57.1969 24.4858 57.0731 24.47 56.9466 24.4647C56.8201 24.4542 56.7094 24.4489 56.6146 24.4489H53.413V29.2843Z" fill="#0A0A0A"/>
<path d="M65.4053 34.9493C64.5727 34.9493 63.8507 34.7649 63.2393 34.3962C62.6333 34.0275 62.1616 33.5087 61.8243 32.8397C61.487 32.1708 61.3184 31.386 61.3184 30.4852C61.3184 29.5529 61.4844 28.747 61.8164 28.0676C62.1484 27.3881 62.6148 26.864 63.2156 26.4953C63.8217 26.1266 64.5358 25.9422 65.3579 25.9422C66.2011 25.9422 66.9205 26.1371 67.516 26.5269C68.1115 26.9114 68.5621 27.4645 68.8678 28.1861C69.1734 28.9077 69.3131 29.7689 69.2868 30.7697H68.101V30.3588C68.0799 29.2527 67.8401 28.4178 67.3816 27.8542C66.9284 27.2906 66.2644 27.0088 65.3895 27.0088C64.4725 27.0088 63.769 27.3064 63.2788 27.9016C62.794 28.4968 62.5516 29.3449 62.5516 30.4457C62.5516 31.5203 62.794 32.3551 63.2788 32.9503C63.769 33.5403 64.462 33.8352 65.3579 33.8352C65.9692 33.8352 66.5015 33.6957 66.9547 33.4165C67.4132 33.1321 67.7742 32.7238 68.0377 32.1918L69.1207 32.6106C68.7835 33.3533 68.2854 33.9301 67.6267 34.3409C66.9732 34.7465 66.2327 34.9493 65.4053 34.9493ZM62.1405 30.7697V29.7979H68.6622V30.7697H62.1405Z" fill="#0A0A0A"/>
<path d="M70.8016 34.7122V26.1792H71.8371L75.1652 33.1637L78.5012 26.1792H79.5289V34.7122H78.4063V28.6601L75.5368 34.7122H74.8016L71.932 28.6601V34.7122H70.8016Z" fill="#0A0A0A"/>
<path d="M85.306 34.9493C84.4575 34.9493 83.7329 34.757 83.1321 34.3725C82.5313 33.988 82.0702 33.456 81.7487 32.7765C81.4272 32.097 81.2665 31.3175 81.2665 30.4378C81.2665 29.5424 81.4299 28.7576 81.7566 28.0834C82.0834 27.4092 82.5471 26.8851 83.1479 26.5111C83.754 26.1318 84.4733 25.9422 85.306 25.9422C86.1598 25.9422 86.8871 26.1345 87.4878 26.519C88.0939 26.8982 88.555 27.4276 88.8712 28.1071C89.1927 28.7813 89.3535 29.5582 89.3535 30.4378C89.3535 31.3333 89.1927 32.1207 88.8712 32.8002C88.5498 33.4744 88.086 34.0012 87.4799 34.3804C86.8739 34.7596 86.1492 34.9493 85.306 34.9493ZM85.306 33.8352C86.2546 33.8352 86.9608 33.5218 87.4246 32.895C87.8884 32.263 88.1203 31.4439 88.1203 30.4378C88.1203 29.4055 87.8857 28.5838 87.4167 27.9728C86.9529 27.3617 86.2494 27.0562 85.306 27.0562C84.6683 27.0562 84.1413 27.2011 83.725 27.4908C83.3139 27.7752 83.0056 28.1729 82.8001 28.6838C82.5998 29.1895 82.4997 29.7742 82.4997 30.4378C82.4997 31.465 82.7368 32.2893 83.2112 32.9108C83.6855 33.5271 84.3838 33.8352 85.306 33.8352Z" fill="#0A0A0A"/>
<path d="M91.0894 34.7122V26.1792H92.2514V29.8848H97.0657V26.1792H98.2277V34.7122H97.0657V30.9988H92.2514V34.7122H91.0894Z" fill="#0A0A0A"/>
<path d="M102.755 34.7122V27.2538H99.7269V26.1792H106.944V27.2538H103.917V34.7122H102.755Z" fill="#0A0A0A"/>
<path fill-rule="evenodd" clip-rule="evenodd" d="M0 12.8365V35L1.64419 35V13.9443L42.7463 2.02349V7.07039L6.92721 17.3135V35L43.916 35V17.5V0L0 12.8365ZM19.0334 20.7407L42.7145 14.3541V17.1364L19.0334 23.4914V20.7407Z" fill="#FFFBFC"/>
</svg>
